<svg width="34" height="49" viewBox="0 0 34 49" fill="none" xmlns="http://www.w3.org/2000/svg">
<g clip-path="url(#clip0_64_232)">
<path d="M34 47.7004C31.3874 48.1372 28.839 48.5618 26.2128 49C25.8254 47.5133 25.4447 46.0717 25.075 44.6274C22.6917 35.336 20.3124 26.0433 17.9195 16.7534C17.7913 16.2523 17.7899 15.5547 17.0546 15.5343C16.2674 15.5124 16.2674 16.2237 16.1296 16.7561C13.4216 27.231 10.7162 37.7073 8.01091 48.1836C7.94952 48.4225 7.88131 48.6614 7.79263 48.9891C5.20737 48.5522 2.64393 48.1195 0 47.6731C0.185539 46.1686 0.360164 44.7093 0.547067 43.2513C1.34516 37.048 2.14052 30.846 2.94952 24.644C3.42019 21.0359 3.9045 17.4305 4.4161 13.8278C4.45975 13.5206 4.69441 13.1671 4.94816 12.9773C5.92906 12.2401 6.94407 11.5452 7.96589 10.8654C8.41201 10.5678 8.66985 10.221 8.74352 9.66813C8.95634 8.06815 9.22919 6.47636 9.46658 4.87912C9.5648 4.21564 9.3206 3.80746 8.8131 3.73237C8.29195 3.65456 7.9427 3.96036 7.84175 4.617C7.61801 6.05453 7.42701 7.49887 7.17326 8.93094C7.12142 9.22445 6.91269 9.54936 6.67804 9.73912C6.12005 10.191 5.50477 10.5705 4.77763 11.0729C4.95907 9.74048 5.1146 8.55688 5.28104 7.37601C5.45566 6.1378 5.65621 4.90232 5.81037 3.66139C5.85812 3.27641 6.01501 3.17812 6.37653 3.17812C13.4502 3.18631 20.5225 3.18085 27.5962 3.19996C27.7899 3.19996 28.131 3.41292 28.1542 3.56582C28.5198 5.94804 28.8445 8.33709 29.1746 10.7248C29.1842 10.7889 29.1651 10.8572 29.1501 11.0237C28.4229 10.5173 27.7285 10.0586 27.0709 9.55345C26.9222 9.43878 26.8595 9.16711 26.8254 8.95551C26.5962 7.51799 26.3902 6.07773 26.1651 4.64021C26.0628 3.9863 25.7053 3.66685 25.1978 3.7433C24.6917 3.81975 24.4393 4.23476 24.5362 4.89004C24.7844 6.55418 25.0259 8.21968 25.3233 9.87563C25.3793 10.191 25.6207 10.5446 25.8813 10.7384C26.9195 11.5138 28.0136 12.2128 29.0518 12.9882C29.3056 13.178 29.5443 13.5316 29.5866 13.8374C30.2769 18.838 30.9454 23.8427 31.5989 28.8487C32.3697 34.7572 33.1241 40.667 33.8827 46.5755C33.9263 46.9127 33.9523 47.2526 33.9986 47.6976L34 47.7004Z" fill="#4C4C4C"/>
<path d="M28.0246 0V1.50578H6.06549V0H28.0246Z" fill="#4C4C4C"/>
</g>
<defs>
<clipPath id="clip0_64_232">
<rect width="34" height="49" fill="white"/>
</clipPath>
</defs>
</svg>
