<svg width="44" height="43" viewBox="0 0 44 43" fill="none" xmlns="http://www.w3.org/2000/svg">
<g clip-path="url(#clip0_62_221)">
<path d="M39.9264 10.2509L38.8155 7.83193L37.7045 7.27371L36.7787 5.59903L34.7419 5.22688L34.0013 4.29651L31.9645 3.36614L29.9277 3.73829L29.1871 2.62184C29.1871 2.62184 23.2619 -3.51863 15.8554 2.99399C15.8554 2.99399 10.6709 2.24969 9.93023 7.45978L8.26377 6.34333L5.48635 8.018L4.93086 9.32053L2.3386 10.8091L1.04246 13.4142V16.0955L0.116653 16.9496L0.301815 18.066C0.301815 18.066 -0.809155 21.0432 1.22762 23.4622L0.486977 25.509L1.41278 27.1837L1.04246 27.928L1.96827 29.0444L4.7457 42.6279L5.67151 43L8.81926 23.4622C8.81926 23.4622 9.18958 21.0432 10.856 20.1129C10.856 20.1129 14.1889 18.2521 16.4109 20.485C16.4109 20.485 19.0032 23.6483 26.78 21.2293C26.78 21.2293 31.0387 17.5078 35.8529 21.2293L38.6303 40.2089L39.9264 41.411C39.9264 41.411 39.5561 38.3482 40.8522 34.4406C42.1484 30.533 42.3335 27.7419 42.3335 27.7419L44 22.7179L43.2594 21.6015L43.8148 20.485V18.8103L42.5187 17.88L43.4445 13.6002C43.4445 13.6002 43.0742 10.623 39.9264 10.2509Z" fill="#4C4C4C"/>
</g>
<defs>
<clipPath id="clip0_62_221">
<rect width="44" height="43" fill="white" transform="matrix(-1 0 0 1 44 0)"/>
</clipPath>
</defs>
</svg>
