<svg width="38" height="36" viewBox="0 0 38 36" fill="none" xmlns="http://www.w3.org/2000/svg">
<g clip-path="url(#clip0_64_226)">
<path d="M29.5891 35.9977C28.1946 35.9977 26.799 35.9884 25.4046 36C23.3711 36.0174 21.6679 35.2546 20.2384 33.7847C16.3784 29.8178 12.5083 25.8613 8.64272 21.9002C6.05624 19.2502 3.46975 16.6014 0.885523 13.9502C-0.291798 12.7434 -0.295191 11.4671 0.873083 10.2615C1.62969 9.48021 2.38969 8.7012 3.14969 7.9222C3.7785 7.27766 4.02165 7.27419 4.64707 7.91524C9.24552 12.6275 13.8428 17.3421 18.4402 22.0556C20.1196 23.777 21.8036 25.4939 23.4752 27.2223C24.6367 28.4244 26.0289 29.0237 27.6823 29.0168C30.3774 29.0063 33.0724 29.0121 35.7686 29.0145C37.2174 29.0156 38.009 29.8213 38.0011 31.3074C37.9977 31.865 37.9966 32.4342 37.8914 32.9767C37.5657 34.6506 36.1203 35.9246 34.4522 35.9722C32.8327 36.0185 31.2109 35.9826 29.5902 35.9826C29.5902 35.9872 29.5902 35.9919 29.5902 35.9965L29.5891 35.9977Z" fill="#4C4C4C"/>
<path d="M34.7869 27.6257C34.1412 27.6257 33.639 27.6257 33.138 27.6257C31.3285 27.6257 29.5201 27.6141 27.7106 27.6292C26.4349 27.6396 25.3593 27.1945 24.4591 26.2706C21.6102 23.3447 18.7546 20.4269 15.9125 17.494C15.7621 17.3387 15.6343 17.0651 15.6467 16.8553C15.8118 14.0406 16.0041 11.2283 16.1907 8.41604C16.193 8.38126 16.2156 8.34649 16.245 8.2723C16.6363 8.2723 17.0446 8.29084 17.4506 8.26882C18.2637 8.22477 18.8597 7.8654 19.2386 7.07828C19.8211 5.86689 20.8005 5.23626 22.1361 5.22235C23.4752 5.20844 24.4093 5.87384 24.9454 7.08524C25.3096 7.90714 25.5753 8.77772 25.8377 9.64251C25.8852 9.79785 25.7506 10.0761 25.6172 10.2152C24.3234 11.5657 23.0081 12.8942 21.7131 14.2435C21.5378 14.4255 21.3411 14.6887 21.3411 14.9147C21.3411 15.1292 21.5514 15.4769 21.7301 15.5245C21.9687 15.5871 22.3408 15.5013 22.524 15.3297C23.2886 14.6145 24.0056 13.8447 24.7362 13.0912C25.2655 12.5452 25.7891 11.9923 26.3896 11.3651C26.5785 11.8984 26.7368 12.3366 26.8884 12.7771C27.1779 13.614 27.4414 14.4603 27.7603 15.2857C27.8961 15.6357 27.8259 15.8409 27.5771 16.0878C26.764 16.8924 25.9768 17.7247 25.1716 18.5385C24.8368 18.877 24.6751 19.2363 25.0133 19.6525C25.2903 19.9956 25.7201 19.9365 26.1363 19.5134C26.8816 18.7541 27.6201 17.9878 28.4253 17.159C29.9928 21.0007 32.0625 24.4262 34.7892 27.6257H34.7869Z" fill="#4C4C4C"/>
<path d="M4.92642 6.09989C6.15124 4.8456 7.46993 3.49625 8.78862 2.14574C9.17541 1.75044 9.55767 1.34935 9.94898 0.958688C10.9035 0.0046386 12.177 -0.25503 13.3328 0.25967C14.5124 0.785962 15.2283 1.94404 15.1502 3.32121C15.0009 5.94339 14.8189 8.56326 14.6481 11.1831C14.5497 12.6994 14.449 14.2157 14.3416 15.8525C11.1625 12.5591 8.06029 9.34458 4.92755 6.09989H4.92642Z" fill="#4C4C4C"/>
<path d="M20.6286 35.9977C20.3051 35.9977 20.1095 35.9977 19.9138 35.9977C13.6596 35.9977 7.40547 35.9977 1.15244 35.9977C0.341545 35.9977 0.00678348 35.789 0.019224 35.2952C0.0305335 34.8106 0.376605 34.6043 1.17958 34.6043C6.94405 34.6043 12.7085 34.6101 18.4718 34.5927C18.9457 34.5915 19.2918 34.7121 19.6073 35.0715C19.8765 35.3787 20.2124 35.6256 20.6297 35.9977H20.6286Z" fill="#4C4C4C"/>
<path d="M5.77237 30.4067C4.17094 30.4067 2.56951 30.409 0.968084 30.4067C0.335882 30.4067 -0.00114177 30.1436 0.0203463 29.6845C0.0395725 29.2498 0.361894 29.0156 0.966953 29.0156C4.18791 29.0133 7.40999 29.0052 10.6309 29.0318C10.9035 29.0342 11.2303 29.222 11.4226 29.4295C11.5289 29.5442 11.4927 29.9639 11.3683 30.096C11.1998 30.2757 10.8865 30.3905 10.6332 30.3951C9.01368 30.4206 7.39302 30.4079 5.7735 30.4079L5.77237 30.4067Z" fill="#4C4C4C"/>
</g>
<defs>
<clipPath id="clip0_64_226">
<rect width="38" height="36" fill="white"/>
</clipPath>
</defs>
</svg>
