<svg width="32" height="32" viewBox="0 0 32 32" fill="none" xmlns="http://www.w3.org/2000/svg">
<g clip-path="url(#clip0_64_223)">
<path d="M15.9858 31.9994C11.5032 31.9994 7.02051 31.9994 2.53784 31.9994C0.935346 31.9994 0.008329 31.0702 0.008329 29.4653C0.0074961 21.3158 0.00999479 13.1653 0 5.01493C0 4.68328 0.0857886 4.53246 0.408954 4.4283C2.43956 3.76916 4.46517 3.09337 6.48662 2.4059C6.724 2.32507 6.95638 2.17008 7.13712 1.99426C7.7343 1.41345 8.29818 0.799319 8.89453 0.219349C9.01614 0.101022 9.22436 0.0101932 9.39261 0.0093599C13.7362 -0.00230616 18.0806 -0.00230616 22.4242 0.0093599C22.6057 0.0093599 22.8248 0.109355 22.9622 0.233515C23.611 0.819318 24.2299 1.43845 24.877 2.02592C25.0544 2.18758 25.2785 2.32424 25.505 2.4009C27.5407 3.09087 29.5788 3.77 31.6219 4.43663C31.9075 4.52996 32 4.65912 31.9992 4.9616C31.99 13.167 31.9933 21.3732 31.9908 29.5787C31.9908 31.0419 31.028 31.9977 29.5571 31.9985C25.0328 32.001 20.5085 31.9994 15.9842 31.9994H15.9858ZM15.9525 29.5587C15.9817 29.5587 16.01 29.5578 16.0391 29.557C16.0825 29.4295 16.1283 29.302 16.1699 29.1728C17.356 25.4472 18.5428 21.7216 19.7281 17.9951C21.1107 13.6478 22.49 9.29971 23.8826 4.95577C23.9775 4.65995 23.93 4.48413 23.7093 4.27497C23.1055 3.7025 22.5358 3.09337 21.9311 2.52173C21.7978 2.39507 21.5746 2.29841 21.3922 2.29841C17.7991 2.28591 14.2059 2.28591 10.612 2.29841C10.4296 2.29841 10.2064 2.39507 10.0731 2.5209C9.47756 3.08253 8.91869 3.6825 8.324 4.24497C8.08412 4.47163 8.02665 4.66578 8.13076 4.99327C10.2555 11.6363 12.3669 18.2826 14.4808 24.9289C14.9714 26.4722 15.4611 28.0154 15.9517 29.5587H15.9525Z" fill="#4C4C4C"/>
<path d="M15.9833 23.9263C15.6177 22.6572 15.2804 21.4906 14.9472 20.3231C14.5707 19.0032 14.1893 17.6849 13.8303 16.3608C13.7645 16.1167 13.7495 15.8384 13.7895 15.5892C14.121 13.536 14.4758 11.4861 14.8064 9.43286C14.8364 9.24536 14.7856 9.01788 14.7007 8.84372C14.0743 7.56045 13.4305 6.28552 12.7925 5.00809C12.7317 4.88643 12.6792 4.76143 12.6059 4.60144H19.4041C19.2824 4.85309 19.1775 5.07475 19.0676 5.29474C18.4729 6.48551 17.8699 7.67211 17.2885 8.86955C17.2044 9.04204 17.1677 9.27203 17.1985 9.46119C17.5325 11.5277 17.8873 13.5918 18.2272 15.6575C18.258 15.8434 18.2646 16.0517 18.2147 16.23C17.5109 18.7249 16.7962 21.2164 16.0824 23.7088C16.0716 23.7463 16.05 23.7813 15.9825 23.9271L15.9833 23.9263Z" fill="#4C4C4C"/>
</g>
<defs>
<clipPath id="clip0_64_223">
<rect width="32" height="32" fill="white"/>
</clipPath>
</defs>
</svg>
