<svg width="44" height="40" viewBox="0 0 44 40" fill="none" xmlns="http://www.w3.org/2000/svg">
<g clip-path="url(#clip0_65_235)">
<path d="M33.5863 15.4831C33.8945 15.4831 34.1191 15.4831 34.3448 15.4831C36.7692 15.49 39.1936 15.4705 41.618 15.5187C42.6686 15.5394 43.4099 16.1464 43.7983 17.1138C44.1982 18.1111 43.9954 19.0326 43.2828 19.829C42.7821 20.3879 42.1221 20.6381 41.3888 20.6404C37.9528 20.6518 34.5155 20.6782 31.0794 20.6335C29.4376 20.6117 28.4591 19.5203 28.4293 17.8667C28.4225 17.4891 28.4293 17.1115 28.4293 16.7707C27.1232 18.095 25.8193 19.4147 24.4101 20.8435C24.4628 20.8779 24.6667 20.9651 24.8145 21.112C26.5492 22.8368 28.2758 24.5674 30.0024 26.3002C31.3624 27.6658 31.3728 29.1049 30.0254 30.4567C27.1667 33.3257 24.3047 36.1935 21.4392 39.0555C20.3198 40.1744 18.875 40.3064 17.7911 39.4102C16.7118 38.5185 16.5319 36.9715 17.3878 35.863C17.5505 35.6518 17.7395 35.4602 17.9275 35.2708C20.0585 33.1329 22.1931 30.9973 24.3253 28.8605C24.4708 28.7147 24.6094 28.5621 24.7733 28.3911C24.6106 28.219 24.4719 28.0652 24.3264 27.9194C22.586 26.174 20.8411 24.4331 19.1041 22.6853C17.8026 21.3748 17.7968 19.9162 19.0973 18.6103C22.4142 15.28 25.7586 11.9773 29.0515 8.62291C30.7071 6.93712 33.0971 7.90797 33.5073 9.6695C33.576 9.96328 33.5852 10.2754 33.5863 10.5795C33.5932 12.1838 33.5898 13.7882 33.5898 15.4831H33.5863Z" fill="#4C4C4C"/>
<path d="M15.7597 21.975C16.2123 23.8444 17.712 24.8279 18.8521 26.1154C18.7375 26.2451 18.6435 26.361 18.5393 26.4654C14.3596 30.6541 10.1742 34.8393 6.00025 39.0337C5.21083 39.8267 4.31601 40.2054 3.20807 39.8783C1.49977 39.3734 0.824926 37.3238 1.89161 35.8951C2.0165 35.7276 2.15972 35.5715 2.30752 35.4234C6.67624 31.0454 11.0473 26.6686 15.4171 22.2917C15.4973 22.2114 15.5833 22.1391 15.7608 21.975H15.7597Z" fill="#4C4C4C"/>
<path d="M22.9641 7.8391C21.1355 9.66948 19.3356 11.4597 17.5494 13.2637C16.823 13.997 15.9751 14.3424 14.9577 14.106C13.1039 13.6745 12.3672 11.4597 13.5702 9.97589C13.726 9.78309 13.9025 9.60752 14.0766 9.43194C16.1939 7.30892 18.3113 5.18819 20.4298 3.06632C21.8436 1.65135 22.9149 1.55725 24.5751 2.70712C25.9671 3.67109 27.3569 4.63735 28.6677 5.54738C27.389 6.74201 26.1298 7.91828 24.8145 9.14734C24.2371 8.7388 23.6207 8.30387 22.9641 7.8391Z" fill="#4C4C4C"/>
<path d="M38.7387 3.8639C38.7365 5.9938 37.0052 7.7278 34.8822 7.7255C32.758 7.72321 31.029 5.98692 31.0325 3.85701C31.0348 1.72481 32.7614 -0.00229287 34.8891 2.28488e-06C37.0178 0.00229744 38.741 1.73285 38.7399 3.8639H38.7387Z" fill="#4C4C4C"/>
<path d="M4.58067 11.6112C3.55065 11.6112 2.52063 11.6181 1.48946 11.6089C0.584318 11.602 -0.00803132 11.0741 -1.11117e-05 10.303C0.0080091 9.55246 0.578589 9.02916 1.45967 9.02342C3.51971 9.0108 5.58091 9.00965 7.64095 9.02342C8.52662 9.02916 9.09032 9.54557 9.0972 10.3007C9.10522 11.0787 8.52203 11.6009 7.61346 11.6089C6.60291 11.6181 5.59122 11.6112 4.57953 11.6112H4.58067Z" fill="#4C4C4C"/>
<path d="M7.11393 6.44708C6.10224 6.44708 5.0917 6.45282 4.08001 6.44479C3.16341 6.4379 2.58366 5.92723 2.58481 5.14917C2.58481 4.37341 3.16112 3.86159 4.08573 3.857C6.12745 3.84667 8.16802 3.84552 10.2097 3.857C11.1183 3.86274 11.6992 4.40784 11.6797 5.1813C11.6602 5.93526 11.0874 6.43446 10.2052 6.44249C9.17513 6.45167 8.1451 6.44479 7.11508 6.44479L7.11393 6.44708Z" fill="#4C4C4C"/>
<path d="M7.10018 16.7753C6.08848 16.7753 5.07794 16.7822 4.06739 16.773C3.15882 16.765 2.57678 16.2417 2.5848 15.4636C2.59282 14.7074 3.15652 14.1921 4.04218 14.1864C6.10223 14.1738 8.16343 14.1738 10.2235 14.1864C11.1046 14.1921 11.6728 14.7143 11.6809 15.4671C11.6889 16.2394 11.0977 16.765 10.1914 16.7719C9.16137 16.7799 8.13134 16.7742 7.10132 16.7742L7.10018 16.7753Z" fill="#4C4C4C"/>
</g>
<defs>
<clipPath id="clip0_65_235">
<rect width="44" height="40" fill="white"/>
</clipPath>
</defs>
</svg>
